# xmcd
#
# Track frame offsets:
#	150
#	19315
#	34334
#	52437
#	71696
#	85765
#	100340
#	116626
#	131062
#	147463
#	160214
#	177347
#	194121
#	208787
#	223857
#	241519
#	258667
#	276929
#
# Disc length: 3927 seconds
#
# Revision: 0
# Processed by: cddbd v1.4PL0 Copyright (c) Steve Scherf et al.
# Submitted via: dBpowerAMP V4.0
#
DISCID=270f5512
DTITLE=Bellamy Brothers - Redneck Girls Forever
DYEAR=2002
DGENRE=Country
TTITLE0=Let's Roll America
TTITLE1=Redneck Girl
TTITLE2=Blue Rodeo
TTITLE3=What I Used To Do All Night
TTITLE4=The Andy Griffth Show
TTITLE5=Over The Line
TTITLE6=Crazy Old World
TTITLE7=Passions Thunder
TTITLE8=The Vertical Expressio (Of Horzontial Desire)
TTITLE9=Like She's Not Yours
TTITLE10=Afterglow
TTITLE11=Slow Hurry
TTITLE12=Bubba
TTITLE13=Can I Come Home To You
TTITLE14=She's Awesome
TTITLE15=She's Gone With The Wind
TTITLE16=Our Family
TTITLE17=Come Back Gene And Roy
EXTD=
EXTT0=
EXTT1=
EXTT2=
EXTT3=
EXTT4=
EXTT5=
EXTT6=
EXTT7=
EXTT8=
EXTT9=
EXTT10=
EXTT11=
EXTT12=
EXTT13=
EXTT14=
EXTT15=
EXTT16=
EXTT17=
PLAYORDER=
